<svg id="Laag_1" data-name="Laag 1" xmlns="http://www.w3.org/2000/svg" xmlns:xlink="http://www.w3.org/1999/xlink" viewBox="0 0 382.63 449.57"><defs><style>.cls-1{fill:#fcea10;}.cls-2{fill:#fbbc10;}.cls-3{fill:url(#Naamloos_verloop_14);}.cls-4{fill:url(#Naamloos_verloop_24);}.cls-5{fill:url(#Naamloos_verloop_24-2);}.cls-6{fill:#efecf7;}.cls-7{fill:#fdd29a;}.cls-8{fill:#fff;}.cls-9{fill:url(#Naamloos_verloop_19);}.cls-10{fill:#6d4529;}</style><linearGradient id="Naamloos_verloop_14" x1="29.78" y1="1243.11" x2="211.53" y2="1243.11" gradientTransform="translate(202.19 279.22) scale(1.84 0.34)" gradientUnits="userSpaceOnUse"><stop offset="0" stop-color="#fcea10"/><stop offset="0.02" stop-color="#fce811"/><stop offset="0.42" stop-color="#facb24"/><stop offset="0.76" stop-color="#f9b82f"/><stop offset="1" stop-color="#f9b233"/></linearGradient><linearGradient id="Naamloos_verloop_24" x1="35.29" y1="1146.4" x2="217.26" y2="1146.4" gradientTransform="matrix(1.03, -1.52, -0.09, -0.06, 456.48, 993.26)" gradientUnits="userSpaceOnUse"><stop offset="0" stop-color="#e2cd00"/><stop offset="0.24" stop-color="#e4c700"/><stop offset="0.54" stop-color="#e8b700"/><stop offset="0.89" stop-color="#f09d00"/><stop offset="1" stop-color="#f39200"/></linearGradient><linearGradient id="Naamloos_verloop_24-2" x1="28.23" y1="1918.25" x2="210.19" y2="1918.25" gradientTransform="matrix(0.95, -1.55, 0.08, 0.05, 94.85, 750.56)" xlink:href="#Naamloos_verloop_24"/><linearGradient id="Naamloos_verloop_19" x1="550.14" y1="788.18" x2="550.14" y2="788.18" gradientUnits="userSpaceOnUse"><stop offset="0" stop-color="#dedc00"/><stop offset="0.21" stop-color="#e0d600"/><stop offset="0.47" stop-color="#e4c600"/><stop offset="0.77" stop-color="#ecac00"/><stop offset="1" stop-color="#f39200"/></linearGradient></defs><title>Logo Wit</title><rect class="cls-1" x="293.2" y="686.51" width="168.62" height="165.64" transform="translate(216.76 -586.53) rotate(32.67)"/><rect class="cls-2" x="383.09" y="540.88" width="171.49" height="168.37" transform="translate(-568.7 177.82) rotate(-57.33)"/><rect class="cls-3" x="256.84" y="613.07" width="333.51" height="172.21" transform="matrix(0.54, -0.84, 0.84, 0.54, -651.91, 173.84)"/><path class="cls-4" d="M583.51,606.34a334.35,334.35,0,0,0-37.71,22.35c-56.8,39-63.71,86-119.17,142.16a473.79,473.79,0,0,0-63.72,80.48l47.33,32.18L589.12,601.35Z" transform="translate(-258.29 -504.47)"/><path class="cls-5" d="M440.23,522.64a349,349,0,0,1-6.47,42.09c-14.35,65.76-51.95,92.3-81.32,164.45a525.42,525.42,0,0,1-47.28,89.89l-43.08-26.35L442.62,515.65Z" transform="translate(-258.29 -504.47)"/><path class="cls-6" d="M405.34,570.22q19.08-30,38.14-60.07l149,91.64Z" transform="translate(-258.29 -504.47)"/><path d="M297.65,941.52h19.42c11.36,0,22.74-.38,34.05.3,2.93.17,7.61,3.27,8.09,5.69,1.1,5.64-4,6.35-8.31,6.36-27.69,0-55.39,0-83.09,0-6.56,0-9.59-2.95-9.52-9.6.56-53.45,1-106.9,1.67-160.35a20.27,20.27,0,0,1,3.26-10c33.71-53.22,56-92.25,91-147,.55-.86,18.28-27.5,53.67-80.84,2.63-4,23.73-35.76,26.41-39.81a10.24,10.24,0,0,1,10.61-.68L595.4,598c-6.72,11.29-24.12,40.51-41.92,69.15-27.4,44.07-25.54,40-39,61.39-30.14,47.76-60.12,95.63-90.57,143.19A36,36,0,0,1,410,883.93c-42.86,21.25-73,21.29-106.14,51.43C300.84,938.12,298.6,940.49,297.65,941.52ZM443.48,510.15c-34.14,53.13-162.9,253.75-168,267.56a27.61,27.61,0,0,0-1.4,6.85A163.48,163.48,0,0,0,283,805c.78,1.51,4.19,2.38,6.35,2.32,7.19-.22,14.37-.87,21.53-1.61,6.35-.65,10.59,1.26,12.62,7.85,2,6.33,5.13,12.3,6.92,18.66,1.64,5.83,4.92,7.18,10.43,6.47,6.86-.87,13.81-1.06,20.7-1.7,5.81-.54,9.3,1.79,11.34,7.36,2.38,6.47,5.33,12.73,8.27,19a11,11,0,0,0,3.91,4.87c1.86,1.34,10,3.71,20-.82a35.35,35.35,0,0,0,11.74-8.74c.25-.28.45-.52.58-.68q53.11-81.35,53.2-81.45h0L589.76,598.67C566,587.42,463.94,525.61,443.48,510.15ZM271.64,821.57c0,15.38,1.35,31.55-.37,47.39-1.88,17.36,4.09,27.15,19.12,36.35s26.62,12.75,42.38,2.5c13.52-8.79,29.05-14.47,43.05-21.23-2.74-5.86-5.39-10.85-7.44-16.07-7.75-19.69-7.67-19.72-28.49-18.29-1.93.14-3.91,0-5.8.29-7.13,1.23-11.64-1.09-13.52-8.52-1.21-4.79-3.87-9.22-5.05-14-2.16-8.78-6.71-11.94-16-10.22C291,821.32,282.15,821,271.64,821.57Z" transform="translate(-258.29 -504.47)"/><path d="M477.68,953.87c-15.07,0-30.22.46-45.18-.28-5-.25-9.47-3.59-14.18-5.52,4.76-2.17,9.41-6.13,14.31-6.23q44.42-.87,88.91,0c4.56.09,8.91,3.83,13.36,5.89-4.5,2-8.73,5.61-13.55,5.88C506.92,954.38,492.26,953.88,477.68,953.87Z" transform="translate(-258.29 -504.47)"/><path d="M383.67,953.73c-7.49-.72-25,2.67-24.45-6.41.51-8.31,17.1-5.16,27.59-5.73,5.7-.32,12.36-.79,17.15.28,5.22,1.18,8.77,4,13.05,6.17-4.21,1.9-7.81,4.53-12.81,5.48S392.78,953.73,383.67,953.73Z" transform="translate(-258.29 -504.47)"/><path class="cls-7" d="M271.64,821.57c10.51-.6,19.37-.25,27.88-1.82,9.29-1.72,13.84,1.44,16,10.22,1.18,4.8,3.84,9.23,5.05,14,1.88,7.43,6.39,9.75,13.52,8.52,1.89-.32,3.87-.15,5.8-.29,20.82-1.43,20.74-1.4,28.49,18.29,2.05,5.22,4.7,10.21,7.44,16.07-14,6.76-29.53,12.44-43.05,21.23-15.76,10.25-27.42,6.65-42.38-2.5s-21-19-19.12-36.35C273,853.12,271.64,837,271.64,821.57Z" transform="translate(-258.29 -504.47)"/><path class="cls-8" d="M584.22,596.46c5.72-3.85,20.61,2.83,24.37,12.56,1.69,4.35,1.53,9.87,4.73,19.59,2.57,7.79,4.62,8,13.57,24.45,7.73,14.2,8,17.31,7,20.05-2,5.62-8.71,8.67-13.78,9.22-8.6.93-14.92-5-18.23-8.16A33.45,33.45,0,0,1,593.5,661c-2-5.79-1.12-8.39-1.86-14.72-1.39-11.82-5.56-12.92-8.42-25.1C581.91,615.64,578.34,600.41,584.22,596.46Z" transform="translate(-258.29 -504.47)"/><path class="cls-8" d="M631.83,696.67c-4.28-1.64-10.76,3.08-13.52,8.42-4.47,8.63,1.15,18.19,2.51,20.5,1.19,2,6.39,10.87,12.12,9.87s7.67-11.16,7.75-11.64c.81-4.52-.57-8.56-3.32-16.62C635.17,700.75,634,697.51,631.83,696.67Z" transform="translate(-258.29 -504.47)"/><path class="cls-8" d="M415.25,555c10.43,8.16,19.54,9.52,23.94,9.79a31.88,31.88,0,0,0,6.86-.19c7.23-1.3,11.28-5.89,22.76-7.43,9.12-1.23,17.85,1.32,34.94,6.48s20.63,8.81,38.53,14.66c9.93,3.25,13.13,3.32,19.08,4.84h0c1.67.46,4,1.13,6.72,2,16.47,5.35,35,14.59,34.08,17.63-.7,2.3-12.51.63-18.92-.31-45.9-6.69-151.46-24.14-179.94-28.86Z" transform="translate(-258.29 -504.47)"/><path class="cls-9" d="M550.14,788.18" transform="translate(-258.29 -504.47)"/><path class="cls-10" d="M327.56,796.16c-2-1.09,43.42-77.58,52.64-92,1.81-2.82,3.47-5.2,3.88-5,.75.38-2.94,8.95-3.78,10.91-5.6,13-11,20.91-21.22,37.16-10.35,16.46-10.8,17.92-19.33,31C331.86,790.3,327.91,796.34,327.56,796.16Z" transform="translate(-258.29 -504.47)"/><path class="cls-10" d="M371.47,826.16c-2-1.09,43.42-77.58,52.65-92,1.8-2.81,3.46-5.2,3.87-5,.75.38-2.94,8.95-3.78,10.91-5.6,13-11,20.92-21.22,37.16-10.35,16.46-10.8,17.92-19.32,31C375.77,820.31,371.82,826.35,371.47,826.16Z" transform="translate(-258.29 -504.47)"/></svg>